# Blender v2.82 (sub 7) OBJ File: ''
# www.blender.org
mtllib debug_npc.mtl
o debug_npc_Cube.001
v -0.416246 0.000953 0.463488
v -0.703164 2.379828 0.782970
v -0.416246 0.000953 -0.463488
v -0.703164 2.379828 -0.782969
v 0.416247 0.000953 0.463488
v 0.703164 2.379828 0.782970
v 0.416247 0.000953 -0.463488
v 0.703164 2.379828 -0.782969
v -0.231377 2.379828 0.257637
v -0.231377 2.379828 -0.257637
v 0.231378 2.379828 0.257637
v 0.231378 2.379828 -0.257637
v -0.231377 2.631745 0.257637
v -0.231377 2.631745 -0.257637
v 0.231378 2.631745 0.257637
v 0.231378 2.631745 -0.257637
v -0.508559 2.631745 0.566278
v -0.508559 2.631745 -0.566278
v 0.508559 2.631745 0.566278
v 0.508559 2.631745 -0.566278
v -0.508559 3.631745 0.566278
v -0.508559 3.631745 -0.566278
v 0.508559 3.631745 0.566278
v 0.508559 3.631745 -0.566278
vt 0.375000 0.000000
vt 0.625000 0.000000
vt 0.625000 0.250000
vt 0.375000 0.250000
vt 0.625000 0.500000
vt 0.375000 0.500000
vt 0.625000 0.750000
vt 0.375000 0.750000
vt 0.625000 1.000000
vt 0.375000 1.000000
vt 0.125000 0.500000
vt 0.125000 0.750000
vt 0.625000 0.750000
vt 0.625000 1.000000
vt 0.625000 0.500000
vt 0.625000 0.500000
vt 0.625000 0.750000
vt 0.625000 0.250000
vt 0.625000 0.000000
vt 0.625000 0.500000
vt 0.625000 0.750000
vt 0.625000 0.000000
vt 0.625000 0.250000
vt 0.625000 1.000000
vt 0.625000 1.000000
vt 0.625000 0.750000
vt 0.625000 1.000000
vt 0.625000 0.000000
vt 0.625000 0.250000
vt 0.625000 0.250000
vt 0.625000 0.500000
vt 0.625000 0.000000
vn -0.9928 -0.1197 0.0000
vn 0.0000 -0.1331 -0.9911
vn 0.9928 -0.1197 0.0000
vn 0.0000 -0.1331 0.9911
vn 0.0000 -1.0000 0.0000
vn 0.0000 1.0000 0.0000
vn 1.0000 0.0000 0.0000
vn -1.0000 0.0000 0.0000
vn 0.0000 0.0000 1.0000
vn 0.0000 0.0000 -1.0000
usemtl None
s off
f 1/1/1 2/2/1 4/3/1 3/4/1
f 3/4/2 4/3/2 8/5/2 7/6/2
f 7/6/3 8/5/3 6/7/3 5/8/3
f 5/8/4 6/7/4 2/9/4 1/10/4
f 3/11/5 7/6/5 5/8/5 1/12/5
f 2/9/6 6/7/6 11/13/6 9/14/6
f 11/13/7 12/15/7 16/16/7 15/17/7
f 8/5/6 4/3/6 10/18/6 12/15/6
f 6/7/6 8/5/6 12/15/6 11/13/6
f 4/3/6 2/2/6 9/19/6 10/18/6
f 15/17/5 16/16/5 20/20/5 19/21/5
f 10/18/8 9/19/8 13/22/8 14/23/8
f 9/14/9 11/13/9 15/17/9 13/24/9
f 12/15/10 10/18/10 14/23/10 16/16/10
f 17/25/9 19/21/9 23/26/9 21/27/9
f 14/23/5 13/22/5 17/28/5 18/29/5
f 13/24/5 15/17/5 19/21/5 17/25/5
f 16/16/5 14/23/5 18/29/5 20/20/5
f 20/20/10 18/29/10 22/30/10 24/31/10
f 19/21/7 20/20/7 24/31/7 23/26/7
f 18/29/8 17/28/8 21/32/8 22/30/8
f 21/27/6 23/26/6 24/31/6 22/30/6
