# Blender v2.82 (sub 7) OBJ File: ''
# www.blender.org
mtllib debug_cube.mtl
o debug_cube_Cube.002
v -1.000000 -1.000000 1.000000
v -1.000000 1.000000 1.000000
v -1.000000 -1.000000 -1.000000
v -1.000000 1.000000 -1.000000
v 1.000000 -1.000000 1.000000
v 1.000000 1.000000 1.000000
v 1.000000 -1.000000 -1.000000
v 1.000000 1.000000 -1.000000
vt 0.000391 0.000391
vt 0.000391 0.999609
vt 0.999609 0.999609
vt 0.999609 0.000391
vt 0.000391 0.000391
vt 0.000391 0.999609
vt 0.999609 0.999609
vt 0.999609 0.000391
vt 0.000391 0.000391
vt 0.000391 0.999609
vt 0.999609 0.999609
vt 0.999609 0.000391
vt 0.000391 0.000391
vt 0.000391 0.999609
vt 0.999609 0.999609
vt 0.999609 0.000391
vt 0.000391 0.999609
vt 0.999609 0.999609
vt 0.000391 0.000391
vt 0.999609 0.000391
vn -1.0000 0.0000 0.0000
vn 0.0000 0.0000 -1.0000
vn 1.0000 0.0000 0.0000
vn 0.0000 0.0000 1.0000
vn 0.0000 -1.0000 0.0000
vn 0.0000 1.0000 0.0000
usemtl tex_degug
s off
f 1/1/1 2/2/1 4/3/1 3/4/1
f 3/5/2 4/6/2 8/7/2 7/8/2
f 7/9/3 8/10/3 6/11/3 5/12/3
f 5/13/4 6/14/4 2/15/4 1/16/4
f 3/4/5 7/9/5 5/17/5 1/18/5
f 8/19/6 4/20/6 2/15/6 6/14/6
